<?xml version="1.0" standalone="no"?>
<!DOCTYPE svg PUBLIC "-//W3C//DTD SVG 1.1//EN" "http://www.w3.org/Graphics/SVG/1.1/DTD/svg11.dtd" >
<!--
2013-9-30: Created.
-->
<svg>
<metadata>
Created by iconfont
</metadata>
<defs>

<font id="iconfont" horiz-adv-x="1024" >
  <font-face
    font-family="iconfont"
    font-weight="500"
    font-stretch="normal"
    units-per-em="1024"
    ascent="896"
    descent="-128"
  />
    <missing-glyph />
    
    <glyph glyph-name="fenlei" unicode="&#58881;" d="M769.267876 570.724865 841.626881 643.083869 769.267876 570.724865ZM458.333218 130.320483c0-80.095199-64.934918-145.022954-145.035234-145.022954s-145.035234 64.926732-145.035234 145.022954c0 80.105433 64.934918 145.047514 145.035234 145.047514S458.333218 210.426939 458.333218 130.320483zM855.729064 130.309226c0-80.09213-64.927755-145.010675-145.032164-145.010675-80.102363 0-145.038304 64.918545-145.038304 145.010675 0 80.110549 64.935941 145.059793 145.038304 145.059793C790.801309 275.36902 855.729064 210.419775 855.729064 130.309226zM458.333218 498.701504c0-80.093153-64.928778-145.012721-145.032164-145.012721-80.103386 0-145.039327 64.920592-145.039327 145.012721 0 80.110549 64.935941 145.057747 145.039327 145.057747C393.40444 643.759251 458.333218 578.812053 458.333218 498.701504zM855.730087 498.689225c0-80.08906-64.922638-145.001465-145.028071-145.001465-80.105433 0-145.043421 64.912405-145.043421 145.001465 0 80.115666 64.937988 145.070027 145.043421 145.070027C790.807449 643.759251 855.730087 578.80489 855.730087 498.689225z"  horiz-adv-x="1024" />

    
    <glyph glyph-name="xiaoxi" unicode="&#58994;" d="M301.789882 607.075635l421.624666 0 0-45.539172L301.789882 561.536462 301.789882 607.075635 301.789882 607.075635zM301.789882 452.313875l421.624666 0 0-45.536103L301.789882 406.777773 301.789882 452.313875 301.789882 452.313875zM301.789882 296.64035l280.408411 0 0-45.537126L301.789882 251.103224 301.789882 296.64035 301.789882 296.64035zM152.257218-83.283566l52.647057 175.007873c-56.93164 44.37465-102.390995 92.629677-135.238101 143.564743-39.618323 61.429071-59.70173 125.169791-59.70173 189.473329 0 58.177004 13.969153 114.886587 41.514509 168.55695 26.163893 50.965765 63.321164 96.915283 110.445438 136.558166 46.496987 39.120996 100.04967 69.904093 159.174256 91.50097 60.882626 22.242584 124.488269 33.517371 189.048657 33.517371 134.398989 0 260.199137-44.461631 354.233813-125.18514 45.9004-39.401382 81.937151-85.411275 107.128903-136.76385 26.090215-53.207829 39.319517-109.791545 39.319517-168.18242 0-58.553581-13.236466-115.238604-39.337937-168.481226-25.186635-51.365878-61.238736-97.370655-107.153462-136.741337-93.958952-80.551594-219.752959-124.909871-354.192881-124.909871-56.796564 0-112.652709 13.370519-166.79584 26.927279L152.257218-83.283566 152.257218-83.283566zM510.150374 814.733115c-249.359254 0-460.024232-178.585351-460.024232-389.969713 0-107.508549 67.500347-217.411635 190.07094-309.462121l11.207249-8.420787-32.412201-107.736746 118.860085 65.204048 7.640004-1.916653c54.157457-13.585413 110.154819-27.636431 164.6602-27.636431 253.934456 0 460.526675 174.942381 460.526675 389.964596C970.679096 639.785617 764.086877 814.733115 510.150374 814.733115L510.150374 814.733115z"  horiz-adv-x="1024" />

    
    <glyph glyph-name="sousuo" unicode="&#58967;" d="M899.469 51.411l0.188 0.185L747.758 203.49c48.403 60.782 77.374 137.692 77.374 221.25 0 196.18-159.606 355.783-355.785 355.783S113.563 620.92 113.563 424.74c0-196.179 159.604-355.782 355.783-355.782 85.699 0 164.415 30.459 225.9 81.118l148.412-148.416c0.883-1.107 1.818-2.189 2.845-3.213 14.627-14.63 38.338-14.63 52.965 0C914.096 13.071 914.096 36.781 899.469 51.411zM158.507 424.74c0 171.397 139.442 310.84 310.84 310.84s310.842-139.443 310.842-310.84c0-171.396-139.443-310.839-310.842-310.839S158.507 253.344 158.507 424.74z"  horiz-adv-x="1024" />

    
    <glyph glyph-name="daohang" unicode="&#58925;" d="M480.070358 112.802718c4.40056-4.912253 10.643214-7.470718 16.78353-7.470718 0.307016 0 0.614032 0 0.921047 0 0.307016 0 0.614032 0 0.921047 0 6.140316 0 12.280632 2.558465 16.78353 7.470718l171.621827 191.475515c80.642814 86.885469 54.648811 207.13332 53.523086 212.25025l-0.307016 1.125725c-29.1665 104.897062-98.142714 149.721367-150.847092 168.961023-27.222067 9.926844-52.704377 14.020388-72.148711 15.657805-1.023386 0.204677-2.149111 0.409354-3.172497 0.511693-0.71637 0.102339-6.652009 0.511693-16.271837 0.409354-9.619828 0.102339-15.555467-0.409354-16.271837-0.409354-1.125725-0.102339-2.149111-0.307016-3.172497-0.511693-19.444333-1.637418-45.028983-5.8333-72.148711-15.657805-52.704377-19.239656-121.680592-64.063962-150.847092-168.961023l-0.307016-1.125725c-1.125725-5.11693-27.222067-125.46712 53.523086-212.25025L480.070358 112.802718zM298.828703 506.192285c19.239656 68.464521 59.970418 114.721567 121.168899 137.440736 32.953028 12.280632 63.654607 14.327404 79.210074 14.532081 15.964821-0.307016 44.107935-2.763142 74.707176-13.918049 62.01719-22.61683 103.259644-68.976214 122.703978-138.054767 0.71637-3.684189 5.423946-28.552469 2.865481-60.686788-3.581851-44.824305-18.93264-82.075555-45.643014-110.730362l-0.102339-0.204677L497.774935 160.594843 341.810913 334.468119l-0.307016 0.307016c-26.710374 28.654807-42.061163 65.906056-45.643014 110.730362C293.404757 477.742155 298.112333 502.712772 298.828703 506.192285zM497.877274 363.327603c51.373976 0 93.128123 41.754148 93.128123 93.128123s-41.754148 93.128123-93.128123 93.128123-93.128123-41.754148-93.128123-93.128123S446.503298 363.327603 497.877274 363.327603zM497.877274 504.554867c26.505697 0 48.099141-21.593444 48.099141-48.099141s-21.593444-48.099141-48.099141-48.099141-48.099141 21.593444-48.099141 48.099141S471.371577 504.554867 497.877274 504.554867z"  horiz-adv-x="1024" />

    
    <glyph glyph-name="back" unicode="&#58989;" d="M363.841 423.021c-26.902-24.38-26.539-64.507 0.889-88.507l309.222-270.569c8.867-7.759 22.345-6.86 30.103 2.007 7.759 8.867 6.86 22.345-2.007 30.103l-309.222 270.569c-8.231 7.202-8.324 17.541-0.334 24.782l309.833 280.786c8.73 7.912 9.394 21.403 1.482 30.133-7.912 8.73-21.403 9.394-30.133 1.482l-309.833-280.786z"  horiz-adv-x="1024" />

    
    <glyph glyph-name="daishouhuo-copy" unicode="&#58902;" d="M638.415 797.345c0-212.319 0-423.258 0-635.087-3.094-0.169-5.902-0.454-8.708-0.455-205.962-0.020-411.924 0.022-617.885-0.183-7.462-0.006-9.485 2.209-9.478 9.427 0.153 205.697 0.153 411.391-0.003 617.085-0.005 7.282 2.124 9.381 9.52 9.373 205.962-0.202 411.924-0.16 617.887-0.16 2.611 0 5.223 0 8.671 0zM64.778 479.395c0-82.061 0.073-164.125-0.131-246.186-0.017-6.915 1.311-9.775 9.079-9.763 164.391 0.212 328.782 0.206 493.172 0.013 7.494-0.006 9.284 2.402 9.275 9.588-0.188 164.39-0.198 328.78 0.027 493.171 0.011 7.598-2.448 9.351-9.535 9.343-164.124-0.156-328.247-0.173-492.371 0.045-7.904 0.010-9.69-2.554-9.665-10.022 0.241-82.063 0.15-164.125 0.15-246.188zM893.327 415.125c0-19.783-0.106-38.151 0.062-56.517 0.053-5.788-3.676-5.499-7.488-5.5-17.853-0.013-35.706-0.015-53.557-0.015-39.434-0.001-78.869 0.165-118.301-0.142-7.591-0.059-10.48 1.359-10.449 9.986 0.355 99.117 0.224 198.236 0.224 297.354 0 2.635 0 5.269 0 8.704 3.059 0.22 5.604 0.565 8.153 0.565 64.747 0.030 129.495-0.046 194.239 0.146 5.568 0.017 8.485-1.757 10.971-6.753 33.638-67.648 67.517-135.174 101.194-202.804 1.589-3.191 2.607-7.046 2.612-10.593 0.139-93.523 0.114-187.046 0.092-280.57 0-2.071-0.274-4.148-0.457-6.689-105.49 0-210.586 0-316.244 0 0 20.093 0 39.937 0 60.702 3.557 0.198 7.162 0.574 10.765 0.576 77.536 0.034 155.071 0.022 232.607 0.030 11.327 0.002 11.357 0.029 11.36 11.558 0.011 65.546 0.085 131.090-0.15 196.637-0.018 5.093-1.332 10.635-3.591 15.202-25.242 51.025-50.892 101.849-76.113 152.882-3.042 6.149-6.635 8.267-13.45 8.185-30.371-0.375-60.75-0.378-91.121-0.006-7.226 0.089-9.021-2.436-8.996-9.216 0.202-58.351 0.22-116.703-0.015-175.055-0.031-7.17 2.448-8.875 9.287-8.813 36.236 0.319 72.475 0.15 108.709 0.149 2.864 0 5.728 0 9.658 0zM160.898 96.656c8.259-0.003 16.522-0.133 24.778 0.048 4.476 0.099 6.599-1.2 7.138-6.176 3.429-31.583 29.609-56.731 59.51-57.571 34.848-0.983 62.449 20.64 67.69 53.675 1.217 7.678 3.805 10.677 12.027 10.239 14.347-0.763 28.772-0.502 43.148-0.081 6.402 0.187 8.386-1.882 7.975-8.214-3.021-46.59-33.277-92.512-83.862-110.597-74.131-26.503-154.275 20.013-167.307 98.053-3.888 23.279-7.919 20.412 16.913 20.623 3.998 0.033 7.995 0.003 11.991 0.002zM735.308 96.594c20.651 0 39.509 0.18 58.349-0.305 1.703-0.044 4.346-4.179 4.781-6.719 5.127-29.846 23.77-49.829 52.611-55.888 33.873-7.114 70.587 18.626 74.871 52.964 0.925 7.406 2.986 10.621 11.168 10.212 14.608-0.726 29.292-0.551 43.923-0.054 7.017 0.237 8.523-2.426 8.128-8.817-3.229-52.115-42.569-99.778-93.631-113.127-71.87-18.786-143.506 26.207-157.639 99.152-1.346 6.956-1.631 14.116-2.56 22.58zM510.93 414.602c0-19.445 0.099-38.301-0.193-57.151-0.021-1.443-2.566-3.408-4.342-4.103-1.855-0.731-4.197-0.249-6.329-0.251-119.836-0.003-239.671-0.005-359.506 0-10.781 0.002-10.784 0.027-10.787 10.844-0.002 16.716 0 33.431 0 50.66 127.165 0 253.529 0 381.157 0z"  horiz-adv-x="1024" />

    
    <glyph glyph-name="dongtaizan" unicode="&#58962;" d="M100.352 394.24h-30.72v30.72c0 6.144-4.096 10.24-10.24 10.24s-10.24-6.144-10.24-10.24v-30.72h-30.72c-6.144 0-10.24-4.096-10.24-10.24s4.096-10.24 10.24-10.24h30.72v-30.72c0-6.144 4.096-10.24 10.24-10.24s10.24 4.096 10.24 10.24v30.72h30.72c6.144 0 10.24 4.096 10.24 10.24s-4.096 10.24-10.24 10.24zM1005.568 17.408h-30.72v30.72c0 6.144-4.096 10.24-10.24 10.24s-10.24-4.096-10.24-10.24v-30.72h-30.72c-6.144 0-10.24-4.096-10.24-10.24s4.096-10.24 10.24-10.24h30.72v-30.72c0-6.144 4.096-10.24 10.24-10.24s10.24 4.096 10.24 10.24v30.72h30.72c6.144 0 10.24 4.096 10.24 10.24s-4.096 10.24-10.24 10.24zM108.544 97.28c0-0 0-0 0-0 0-7.918 6.418-14.336 14.336-14.336 7.918 0 14.336 6.418 14.336 14.336 0 0 0 0 0 0 0 0 0 0 0 0 0 7.918-6.418 14.336-14.336 14.336-7.918 0-14.336-6.418-14.336-14.336 0-0 0-0 0-0zM512 752.64c-204.8 0-370.688-153.6-370.688-342.016s165.888-342.016 370.688-342.016c22.528 0 45.056 2.048 67.584 6.144 36.864-30.72 94.208-59.392 178.176-59.392 32.768 0 69.632 4.096 110.592 14.336 8.192 2.048 14.336 8.192 14.336 16.384s-4.096 16.384-10.24 20.48c0 0-65.536 36.864-88.064 110.592 63.488 63.488 98.304 145.408 98.304 231.424 0 190.464-165.888 344.064-370.688 344.064zM741.376 181.248c12.288-55.296 45.056-96.256 71.68-120.832-108.544-16.384-176.128 16.384-212.992 51.2-4.096 4.096-8.192 6.144-14.336 6.144h-4.096c-22.528-4.096-47.104-6.144-69.632-6.144-182.272 0-329.728 135.168-329.728 301.056s147.456 299.008 329.728 299.008 329.728-135.168 329.728-301.056c0-79.872-32.768-153.6-94.208-210.944-6.144-4.096-8.192-12.288-6.144-18.432zM356.352 486.4c0-16.966 13.754-30.72 30.72-30.72s30.72 13.754 30.72 30.72c0 16.966-13.754 30.72-30.72 30.72-16.966 0-30.72-13.754-30.72-30.72zM583.68 486.4c-0-0-0-0-0-0 0-16.966 13.754-30.72 30.72-30.72 16.966 0 30.72 13.754 30.72 30.72 0 0 0 0 0 0 0 16.966-13.754 30.72-30.72 30.72-16.966 0-30.72-13.754-30.72-30.72zM616.448 343.040c-100.352-65.536-165.888-24.576-194.56-6.144-6.144 4.096-10.24 6.144-14.336 8.192-10.24 4.096-20.48-2.048-24.576-12.288-4.096-10.24 0-22.528 10.24-26.624 2.048 0 4.096-2.048 6.144-4.096 18.432-10.24 57.344-36.864 112.64-36.864 36.864 0 79.872 10.24 126.976 40.96 10.24 6.144 12.288 18.432 6.144 28.672-8.192 12.288-20.48 14.336-28.672 8.192z"  horiz-adv-x="1024" />

    
    <glyph glyph-name="erweima" unicode="&#59086;" d="M417.553954 831.963545H128.85574c-35.211966 0-63.865563-28.653597-63.865563-63.87068v-288.687982c0-35.217083 28.653597-63.87068 63.865563-63.870679h288.697191c35.211966 0 63.865563 28.653597 63.865563 63.870679V768.092865c0.002047 35.218106-28.65155 63.87068-63.86454 63.87068z m0-361.815489H128.85574c-5.099135 0-9.252735 4.152577-9.252735 9.256827V768.092865c0 5.104251 4.1536 9.256828 9.252735 9.256828h288.697191c5.102205 0 9.252735-4.1536 9.252735-9.256828v-288.687982h0.001023c0-5.104251-4.151553-9.256828-9.252735-9.256827zM287.385313 668.577361h-28.359908c-17.083074 0-30.933523-13.853519-30.933523-30.933524v-28.360931c0-17.08205 13.850449-30.9325 30.933523-30.9325h28.359908c17.083074 0 30.9325 13.850449 30.9325 30.9325V637.642814c0 17.080004-13.849426 30.934546-30.9325 30.934547zM926.715303 26.751526h-28.357861c-17.083074 0-30.933523-13.854543-30.933523-30.933523v-28.360931c0-17.084097 13.849426-30.933523 30.933523-30.933523h28.357861c17.083074 0 30.933523 13.849426 30.933523 30.933523v28.360931c0 17.07898-13.850449 30.933523-30.933523 30.933523zM417.553954 352.95289H128.85574c-35.211966 0-63.865563-28.653597-63.865563-63.87068v-288.687981c0-35.217083 28.653597-63.869656 63.865563-63.869657h288.697191c35.211966 0 63.865563 28.653597 63.865563 63.869657V289.08221c0.002047 35.219129-28.65155 63.87068-63.86454 63.87068z m0-361.818559H128.85574c-5.099135 0-9.252735 4.154623-9.252735 9.258874V289.08221c0 5.104251 4.1536 9.258874 9.252735 9.258875h288.697191c5.102205 0 9.252735-4.154623 9.252735-9.258875v-288.687981h0.001023c0-5.104251-4.151553-9.259898-9.252735-9.259898zM287.385313 189.566706h-28.359908c-17.083074 0-30.933523-13.854543-30.933523-30.933523v-28.360932c0-17.083074 13.850449-30.933523 30.933523-30.933523h28.359908c17.083074 0 30.9325 13.849426 30.9325 30.933523V158.633183c0 17.076934-13.849426 30.933523-30.9325 30.933523zM605.021603 415.534204h288.696168c35.214013 0 63.86761 28.653597 63.86761 63.870679V768.092865c0 35.217083-28.65462 63.87068-63.86761 63.87068H605.021603c-35.215036 0-63.868633-28.653597-63.868633-63.87068v-288.687982c0-35.217083 28.653597-63.87068 63.868633-63.870679z m-9.254781 352.558661c0 5.104251 4.1536 9.256828 9.254781 9.256828h288.696168c5.104251 0 9.253758-4.1536 9.253758-9.256828v-288.687982c0-5.104251-4.149507-9.256828-9.253758-9.256827H605.021603c-5.100158 0-9.254781 4.152577-9.254781 9.256827V768.092865zM735.190245 578.34836h28.359908c17.083074 0 30.933523 13.850449 30.933523 30.9325v28.360931c0 17.07898-13.850449 30.933523-30.933523 30.933523h-28.359908c-17.084097 0-30.933523-13.853519-30.933523-30.933523v-28.360931c-0.001023-17.08205 13.847379-30.9325 30.933523-30.9325zM843.005786 111.057631H710.080358V138.361487v0.001023c0 0.471744-0.013303 0.941442-0.035816 1.406023-0.731664 14.428617-12.661368 25.900903-27.270087 25.900903l-0.039909-0.001023h-81.791841c-1.77032 0-3.499707-0.173962-5.176906-0.496304v37.319977h55.031361c15.081487 0 27.305903 12.225439 27.305902 27.305903 0 15.080463-12.225439 27.305903-27.305902 27.305903h-55.031361v31.978318c0 5.104251 4.1536 9.258874 9.254781 9.258875h146.165988c5.103228 0 9.252735-4.154623 9.252734-9.258875v-74.626651h0.002047v-42.699498c0-15.080463 12.224416-27.305903 27.305902-27.305902 15.080463 0 27.304879 12.226462 27.30488 27.305902V289.08221c0.001023 35.219129-28.652574 63.87068-63.86454 63.87068H605.021603c-35.214013 0-63.86761-28.653597-63.867609-63.87068v-288.687981c0-35.217083 28.653597-63.869656 63.867609-63.869657h118.861109c15.081487 0 27.305903 12.224416 27.305902 27.305903s-12.224416 27.304879-27.305902 27.304879H605.021603c-5.100158 0-9.254781 4.154623-9.254781 9.258875V111.553934c1.677199-0.322341 3.406586-0.496304 5.176906-0.496303h54.524824v-64.704674c0-15.081487 12.224416-27.305903 27.305903-27.305903 15.080463 0 27.305903 12.224416 27.305903 27.305903V56.445826h132.925428c15.081487 0 27.305903 12.224416 27.305903 27.305902 0 15.080463-12.224416 27.305903-27.305903 27.305903zM902.973576 325.646987v-203.998137c0-15.081487 12.224416-27.305903 27.304879-27.305903 15.081487 0 27.305903 12.224416 27.305903 27.305903V325.646987c0 15.081487-12.224416 27.305903-27.305903 27.305903-15.080463 0-27.304879-12.224416-27.304879-27.305903z"  horiz-adv-x="1024" />

    
    <glyph glyph-name="jia" unicode="&#58992;" d="M512 896C229.701818 896 0 666.344727 0 384c0-282.298182 229.701818-512 512-512s512 229.748364 512 512c0 282.344727-229.701818 512-512 512z m0-952.552727c-242.967273 0-440.552727 197.632-440.552727 440.552727 0 242.967273 197.585455 440.552727 440.552727 440.552727S952.552727 626.967273 952.552727 384c0-242.920727-197.585455-440.552727-440.552727-440.552727zM750.126545 419.746909h-202.426181V622.173091a35.746909 35.746909 0 0 1-71.493819 0v-202.426182H273.873455a35.746909 35.746909 0 0 1 0-71.493818h202.426181v-202.379636a35.746909 35.746909 0 0 1 71.493819 0v202.379636h202.426181a35.746909 35.746909 0 1 1-0.093091 71.493818z"  horiz-adv-x="1024" />

    
    <glyph glyph-name="tubiaozhizuomoban" unicode="&#58907;" d="M791.291 161.865c52.361 0 94.955 42.592 94.955 94.954s-42.594 94.955-94.955 94.955-94.955-42.593-94.955-94.955 42.594-94.954 94.955-94.954z m-31.652 126.606h63.303v-63.303h-63.303v63.303z m-31.653 348.168V889.853h-601.38c-35.145 0-66.92-14.404-89.886-37.586L33.289 872.45l-5.254-30.725C10.756 820.089 0 793.042 0 763.245v-63.303c0-5.317 0.927-10.386 1.576-15.517C0.804 679.109 0 673.823 0 668.291v-664.685C0-66.22 56.781-123 126.606-123h759.64c69.795 0 126.605 56.78 126.605 126.606V636.639H727.986zM63.303 763.245c0 34.897 28.375 63.304 63.303 63.304h538.077v-189.91H126.606c-4.142 0-8.129 0.463-12.055 1.206-1.36 0.278-2.721 0.772-4.081 1.144-2.411 0.618-4.821 1.298-7.14 2.225-1.576 0.619-3.122 1.422-4.636 2.195-1.886 0.928-3.741 1.886-5.503 2.999-1.668 1.051-3.276 2.225-4.821 3.431a56.646 56.646 0 0 0-3.957 3.246 61.533 61.533 0 0 0-4.884 4.945c-0.834 0.928-1.576 1.886-2.349 2.844-1.73 2.195-3.37 4.451-4.791 6.892-0.278 0.464-0.526 0.99-0.804 1.484-3.4 6.15-5.904 12.89-7.141 20.184l-0.216 1.391c-0.463 2.998-0.927 5.996-0.927 9.118v63.302z m886.246-633.032H696.336c-34.928 0-63.303 28.406-63.303 63.303V320.123c0 34.896 28.375 63.303 63.303 63.303h253.213v-253.213z m0 316.516H696.336c-69.826 0-126.607-56.781-126.607-126.606v-126.607c0-69.825 56.781-126.606 126.607-126.606h253.213v-63.303c0-34.896-28.407-63.304-63.303-63.304h-759.64c-34.929 0-63.303 28.407-63.303 63.304V590.305c4.42-2.565 9.025-4.821 13.755-6.831 0.123-0.062 0.247-0.155 0.401-0.186 6.77-2.875 13.878-4.945 21.173-6.615 1.731-0.371 3.431-0.711 5.193-1.02 7.418-1.36 14.991-2.318 22.78-2.318h822.942v-126.606z"  horiz-adv-x="1024" />

    
    <glyph glyph-name="remenhuati-" unicode="&#59091;" d="M155.648 184.32v-0.512c0-0.512 0-0.512-0.512-1.536-0.512-2.56-0.512-2.56-2.048-6.144-3.072-9.216-3.072-9.216-6.656-22.016-9.216-30.208-9.216-30.208-20.992-66.56-22.528-72.192-22.528-72.192-30.208-96.256-3.584-11.776 7.68-23.04 19.456-18.432 22.528 8.192 22.528 8.192 91.136 33.792 68.096 25.088 68.096 25.088 91.136 33.792l-13.312 1.536c68.096-45.056 148.48-69.632 232.448-69.632 232.448 0 420.864 188.416 420.864 420.864 0 232.448-188.416 420.864-420.864 420.864-232.448 0-420.864-188.416-420.864-420.864 0-79.36 22.016-155.136 62.464-221.184l-2.048 12.288z m28.672-9.216c1.536 4.096 0.512 8.704-1.536 12.288-37.888 61.44-58.368 131.584-58.368 205.312 0 216.064 175.104 391.168 391.168 391.168s391.168-175.104 391.168-391.168-175.104-391.168-391.168-391.168c-77.824 0-152.064 22.528-215.552 64.512-4.096 2.56-9.216 3.072-13.312 1.536-22.528-8.192-22.528-8.192-91.136-33.792-68.096-25.088-68.096-25.088-91.136-33.792l19.456-18.432c7.68 24.064 7.68 24.064 30.208 96.256 11.264 36.352 11.264 36.352 20.992 66.56 4.096 12.8 4.096 12.8 6.656 22.016 1.024 3.584 1.024 3.584 2.048 6.144 0.512 1.536 0.512 1.536 0.512 2.048v0.512zM739.328 504.832h-64.512l21.504 75.264c4.096 15.36-4.608 31.232-19.968 35.328-15.36 4.096-31.232-4.608-35.328-19.968l-25.6-91.136H480.256L501.76 580.096c4.096 15.36-4.608 31.232-19.968 35.328-15.36 4.096-31.232-4.608-35.328-19.968l-25.6-90.624H331.264c-14.848 0-26.624-11.776-26.624-26.624v-5.12c0-14.848 11.776-26.624 26.624-26.624H404.48l-32.768-115.2H294.4c-15.872 0-28.672-12.8-28.672-28.672 0-15.872 12.8-28.672 28.672-28.672h61.44l-19.456-68.608c-4.096-15.36 4.608-31.232 19.968-35.328 15.36-4.096 31.232 4.608 35.328 19.968l24.064 83.968h134.656l-19.456-68.608c-4.096-15.36 4.608-31.232 19.968-35.328 15.36-4.096 31.232 4.608 35.328 19.968l23.552 83.968h90.112c15.872 0 28.672 12.8 28.672 28.672 0 15.872-12.8 28.672-28.672 28.672h-73.728l32.768 115.2h80.896c14.848 0 26.624 11.776 26.624 26.624v5.12c-0.512 14.848-12.288 26.624-27.136 26.624z m-173.056-173.056H431.616l32.768 115.2H599.04l-32.768-115.2z"  horiz-adv-x="1024" />

    
    <glyph glyph-name="zan" unicode="&#58917;" d="M256 486.4H204.8c-28.5696 0-51.2-22.6304-51.2-50.7904v-359.2192c0-27.7504 23.04-50.7904 51.2-50.7904h51.2V486.4z m256 40.96V742.4c0 28.4672-22.784 51.2-51.2 51.2H409.6a51.2 51.2 0 0 1-51.2-51.2v-153.6c0-37.888-20.6336-70.912-51.2-88.6272V25.6h404.1728c56.2176 0 116.224 45.5168 130.2016 98.304l38.6048 145.2544 38.656 145.2544c5.632 21.1456 2.56 39.168-7.5776 51.8656-10.1888 12.6976-27.4944 20.1216-50.432 20.1216H512v40.96zM281.6-25.6H204.8c-56.576 0-102.4 46.08-102.4 101.9904V435.6096C102.4 491.9296 147.8656 537.6 204.8 537.6h51.2c28.16 0 51.2 23.04 51.2 51.2V742.4a102.4 102.4 0 0 0 102.4 102.4h51.2c56.4224 0 102.4-45.4144 102.4-102.4v-204.8h297.6256c79.36 0 127.3856-61.3376 107.4688-136.3456l-77.2096-290.5088c-20.0192-75.264-100.352-136.3456-179.712-136.3456H281.6z"  horiz-adv-x="1024" />

    
    <glyph glyph-name="shuaxin" unicode="&#58893;" d="M346.714 573.252c49.082 49.085 116.847 79.489 191.57 79.489 82.739 0 159.278-37.684 209.987-99.794l-93.819-93.819H886.79V691.463l-83.421-83.44c-65.194 76.255-161.433 122.163-265.083 122.163-96.089 0-183.215-39.084-246.33-102.196-45.662-45.671-78.485-103.661-93.269-168.864h79.656c12.953 44.026 36.683 82.447 68.372 114.126zM729.855 190.11c-49.083-49.085-116.848-79.488-191.57-79.488-82.74 0-159.279 37.683-209.988 99.794l93.82 93.82H189.78v-232.337l83.42 83.42c65.194-76.236 161.433-122.143 265.085-122.143 96.088 0 183.213 39.064 246.328 102.175 45.584 45.615 78.37 103.87 93.193 168.883h-79.883c-13.047-43.618-36.662-82.72-68.068-114.124z"  horiz-adv-x="1024" />

    
    <glyph glyph-name="hemalogo--" unicode="&#58886;" d="M377.94 535.27a34.7 34.7 0 0 1 34.7 34.7v34.7a34.7 34.7 0 0 1-69.4 0V570a34.7 34.7 0 0 1 34.68-34.73zM646.29 535.27A34.7 34.7 0 0 1 681 570v34.67a34.7 34.7 0 0 1-69.4 0V570a34.7 34.7 0 0 1 34.68-34.73zM877.74 455.14l-57.5 206.47c14.11 8.64 31.07 22.22 42.1 41.92 13.91 24.8 19.42 69.38-6.84 120.1-15.6 30-36.95 38.4-52.14 40-39.85 4.37-79.3-31.13-116.46-73.78-31.26 8.64-97.5 23.94-174.78 23.94s-143.52-15.3-174.79-24c-37.2 42.7-76.57 78.21-116.46 73.84-15.19-1.67-36.58-10-52.14-40-26.26-50.71-20.75-95.29-6.84-120.1 11-19.69 28-33.28 42.1-41.92l-57.45-206.29C78.54 409.14 33.2 331.66 32 243.67v-0.8c1.09-77.92 36.77-147.6 92.16-194.6 0.11-0.11 0.19-0.24 0.3-0.35C217.27-39.89 355.59-96 512.12-96S807-39.89 899.78 47.93c0.38 0.36 0.66 0.79 1 1.2 54.84 47 90.12 116.3 91.2 193.78v0.8c-1.18 87.83-46.38 165.2-114.24 211.43zM247.87 704.08c-5.27 1.86-26.72 12-35.53 27.73-0.14 0.19-13.29 24.59 7.76 65.19 3.49 6.74 6.41 9 7.08 9.12 3.24 0.34 22.43-1.2 78.19-68L318.09 723l18.71 6.32c0.83 0.26 79.85 26.66 175.32 26.66s174.49-26.34 175.2-26.59L706.1 723l12.72 15.23c55.74 66.71 74.93 68.28 78.19 68 0.67-0.07 3.6-2.4 7.08-9.12 21.11-40.68 7.91-65.08 7.8-65.27-8.48-15.14-28.55-25.2-35.64-27.77l-25.37-9 57.48-206.4a258.53 258.53 0 0 1-76.62 11.57h-2c-60.34-0.47-105.28-23.46-149.77-49-25.2-14.5-42.38-23.3-68-23.3s-42.76 8.81-68 23.3c-44.5 25.58-89.42 48.58-149.77 49h-2a258.5 258.5 0 0 1-76.37-11.48l57.49 206.34z m76.55-715.52c45.78 6.36 82.8 25.69 119.6 46.8 25.2 14.5 42.38 23.3 68 23.3s42.76-8.81 68-23.3c36.79-21.16 73.92-40.5 119.77-46.8-70.9-21.29-144.1-26.71-187.63-26.71s-116.78 5.44-187.7 26.71z m407.33 55.61h-1.56C688 44.48 655 58.93 608.8 85.5c-30.55 17.57-57.07 31-96.8 31s-66.25-13.43-96.8-31c-46.21-26.57-79.2-41-121.39-41.34h-1.56c-110.09 0-200.66 89-202.42 199.12 1.75 110.16 92.32 199.12 202.42 199.12h1.56c42.14-0.32 75.18-14.78 121.39-41.34 30.55-17.57 57.07-31 96.8-31s66.25 13.43 96.8 31c46.21 26.57 79.2 41 121.39 41.34h1.56c110.09 0 200.66-89 202.42-199.12-1.76-110.16-92.33-199.13-202.43-199.13z"  horiz-adv-x="1024" />

    
    <glyph glyph-name="dongwutubiao-xianxing-hema" unicode="&#58888;" d="M657.7 593.2c1 1.3 1.9 2.7 2.5 4.2 2.4 6.2 3.6 12.8 3.6 19.5 0 30-24.4 54.3-54.3 54.3-21.2 0-40.6-12.5-49.4-31.8-0.8-1.8-1.3-3.7-1.4-5.5-15 2.7-30.4 4.1-46.2 4.1-15.8 0-31.3-1.4-46.3-4.2-0.1 1.9-0.6 3.8-1.4 5.5-8.8 19.3-28.2 31.8-49.4 31.8-29.9 0-54.3-24.4-54.3-54.3 0-6.7 1.2-13.3 3.6-19.5 0.6-1.6 1.4-3 2.5-4.2C299 546.7 254.4 468.6 254.4 380c0-142.5 115.5-258 258-258s258 115.5 258 258c0 88.6-44.7 166.8-112.7 213.2z m-48.3 62c21.2 0 38.3-17.2 38.3-38.3 0-4.8-0.9-9.5-2.5-13.7-20.4 15.1-44.5 25.6-70.7 29.6 6.1 13.2 19.4 22.4 34.9 22.4z m-194.1 0c15.5 0 28.8-9.2 34.9-22.5-26.2-4-50.3-14.5-70.6-29.6-1.6 4.3-2.6 8.9-2.6 13.8-0.1 21.2 17.1 38.3 38.3 38.3zM606.6 157c-29.8-12.6-61.5-19-94.2-19s-64.4 6.4-94.2 19c-28.8 12.2-54.7 29.6-76.9 51.9-1.9 1.9-3.7 3.8-5.5 5.7 61.2-17.9 115.4-25.7 176.6-25.7 61.2 0 115.4 7.8 176.6 25.7-1.8-1.9-3.6-3.8-5.5-5.7-22.2-22.2-48.1-39.7-76.9-51.9z m101.1 80.1c-69.6-22.5-128.1-32.2-195.3-32.2-67.2 0-125.7 9.6-195.3 32.2-11.1 15.1-20.3 31.4-27.7 48.7-12.6 29.8-19 61.5-19 94.2s6.4 64.4 19 94.2c12.2 28.8 29.6 54.7 51.9 76.9 22.2 22.2 48.1 39.7 76.9 51.9 29.8 12.6 61.5 19 94.2 19s64.4-6.4 94.2-19c28.8-12.2 54.7-29.6 76.9-51.9 22.2-22.2 39.7-48.1 51.9-76.9 12.6-29.8 19-61.5 19-94.2s-6.4-64.4-19-94.2c-7.4-17.4-16.6-33.7-27.7-48.7zM416.3 466.8m-18 0a18 18 0 1 1 36 0 18 18 0 1 1-36 0ZM608.4 466.8m-18 0a18 18 0 1 1 36 0 18 18 0 1 1-36 0ZM396.3 365.8c-21 0-38-17-38-38s17-38 38-38 38 17 38 38-17 38-38 38z m0-60c-12.1 0-22 9.9-22 22s9.9 22 22 22 22-9.9 22-22-9.9-22-22-22zM627.1 365.8c-21 0-38-17-38-38s17-38 38-38 38 17 38 38-17 38-38 38z m0-60c-12.1 0-22 9.9-22 22s9.9 22 22 22 22-9.9 22-22-9.8-22-22-22z"  horiz-adv-x="1024" />

    
    <glyph glyph-name="ziyuan" unicode="&#58963;" d="M511.992847 384.007153m-511.992847 0a511.992847 511.992847 0 1 1 1023.985694 0 511.992847 511.992847 0 1 1-1023.985694 0ZM791.844312 479.398706A283.628215 283.628215 0 0 1 308.920996 662.098996a279.636877 279.636877 0 0 1-82.487657-182.70029 157.36459 157.36459 0 0 1 93.875131-283.556685 31.472918 31.472918 0 0 1 31.472918 31.472918v251.783344a31.472918 31.472918 0 0 1-31.472918 31.472918 157.865296 157.865296 0 0 1-26.58031-2.288939 220.510708 220.510708 0 0 0 430.792719 0 157.865296 157.865296 0 0 1-26.58031 2.288939 31.472918 31.472918 0 0 1-31.472918-31.472918v-251.783344a31.472918 31.472918 0 0 1 31.472918-31.472918 157.464731 157.464731 0 0 1 31.472918 3.161597v-62.945836a28.611744 28.611744 0 0 0-28.611743-28.611743H646.625407a31.472918 31.472918 0 0 1-29.641767 20.986714h-107.851967a31.472918 31.472918 0 0 1-31.472918-31.472918v-41.959123a31.472918 31.472918 0 0 1 31.472918-31.472918h107.780438A31.472918 31.472918 0 0 1 646.625407 44.471591h54.219254a91.629109 91.629109 0 0 1 91.55758 91.55758v91.371603a157.178614 157.178614 0 0 1-0.529317 251.983626zM434.025846 456.251806m-42.917616 0a42.917616 42.917616 0 1 1 85.835231 0 42.917616 42.917616 0 1 1-85.835231 0ZM584.2375 456.251806m-42.917616 0a42.917616 42.917616 0 1 1 85.835231 0 42.917616 42.917616 0 1 1-85.835231 0ZM396.530155 338.228363a117.308149 117.308149 0 0 1 230.62496 0z"  horiz-adv-x="1024" />

    
    <glyph glyph-name="gouwuche" unicode="&#58903;" d="M444.220952 123.538286c-27.392 0-49.664-22.28419-49.664-49.664s22.28419-49.664 49.664-49.664c27.37981 0 49.664 22.28419 49.664 49.664s-22.272 49.664-49.664 49.664z m0-62.768762c-7.216762 0-13.092571 5.87581-13.092571 13.092571s5.87581 13.092571 13.092571 13.092572 13.092571-5.87581 13.092572-13.092572-5.863619-13.092571-13.092572-13.092571zM845.494857 123.538286c-27.37981 0-49.664-22.28419-49.664-49.664s22.28419-49.664 49.664-49.664 49.664 22.28419 49.664 49.664-22.272 49.664-49.664 49.664z m0-62.768762c-7.216762 0-13.092571 5.87581-13.092571 13.092571s5.87581 13.092571 13.092571 13.092572a13.104762 13.104762 0 0 0 0-26.185143zM441.953524 185.124571c0.938667-0.158476 1.877333-0.231619 2.816-0.231619h431.652571a18.285714 18.285714 0 1 1 0 36.571429H446.317714c-21.443048 3.998476-30.73219 22.491429-32.170666 25.648762l-10.313143 33.926095c1.670095-0.49981 3.388952-0.914286 5.180952-0.914286a19.504762 19.504762 0 0 1 3.230476 0.280381l463.579429 82.468572a18.273524 18.273524 0 0 1 15.079619 18.005333V541.720381a16.944762 16.944762 0 0 1-0.146286 2.218667c-7.021714 57.478095-53.077333 67.547429-55.027809 67.937523-1.219048 0.24381-2.438095 0.365714-3.669334 0.365715h-437.881904a18.285714 18.285714 0 1 1 0-36.571429H829.561905c5.266286-1.77981 21.199238-9.252571 24.758857-35.132952V396.190476l-448.512-79.786666a18.16381 18.16381 0 0 1-10.812952-6.37562L270.226286 720.579048a18.285714 18.285714 0 0 1-17.493334 12.970666h-91.014095a18.285714 18.285714 0 1 1 0-36.571428h77.458286l140.263619-461.433905c0.146286-0.475429 0.304762-0.926476 0.475428-1.377524 0.670476-1.718857 17.017905-42.020571 62.037334-49.042286z"  horiz-adv-x="1024" />

    
    <glyph glyph-name="fenxiang-" unicode="&#58894;" d="M920.42 379.27a29.85 29.85 0 0 1-29.85-29.85v-266.84a87.1 87.1 0 0 0-87.1-87.1h-582a87.1 87.1 0 0 0-87.1 87.1V684.49a87 87 0 0 0 87 87h330.8a29.85 29.85 0 0 1 0 59.7H228.91A154.37 154.37 0 0 1 74.72 677v-599.19a142.2 142.2 0 0 1 142-142h579.35A154.38 154.38 0 0 1 950.27 90V349.42a29.85 29.85 0 0 1-29.85 29.85zM864.11 685.91c-177.56-8.69-311.78-62.14-399.49-159.25C340.68 389.47 357.5 217.08 358.27 209.83a27.38 27.38 0 0 1 27.27-24.53 26.28 26.28 0 0 1 2.91 0.11 27.55 27.55 0 0 1 24.47 30.19c-0.16 1.54-14.62 156.22 92.93 274.78 77.11 85 197.59 132 358.31 140.38l-80-106.7a27.52 27.52 0 0 1 44-33l109 145.32a27.08 27.08 0 0 1 12.67 27.71A27 27 0 0 1 939.25 685a25.89 25.89 0 0 1-3.27 1.56L827.1 813.65a27.5 27.5 0 1 1-41.79-35.74z"  horiz-adv-x="1024" />

    
    <glyph glyph-name="ziyuan1" unicode="&#58977;" d="M823.970696-128h-84.278388a62.652015 62.652015 0 0 0-46.476191 20.923077 155.194139 155.194139 0 0 1-230.915751 0 62.652015 62.652015 0 0 0-46.18315-20.923077H331.604396a85.802198 85.802198 0 0 0-74.080586 42.783883l-40.263737 69.74359a62.652015 62.652015 0 0 0-4.864469 51.516483 154.842491 154.842491 0 0 1 8.205129 49.875458 155.545788 155.545788 0 0 1-124.952381 152.380952 62.534799 62.534799 0 0 0-42.139194 29.948718L11.721612 340.688645A86.798535 86.798535 0 0 0 11.721612 427.135531l45.128205 78.18315a62.652015 62.652015 0 0 0 41.025641 29.772894 155.956044 155.956044 0 0 1 122.666667 151.912088 155.194139 155.194139 0 0 1-7.443224 47.589744 62.827839 62.827839 0 0 0 5.157509 50.637362l39.091575 67.809524A86.153846 86.153846 0 0 0 331.78022 896H416.117216a62.652015 62.652015 0 0 0 46.417583-20.864469 155.545788 155.545788 0 0 1 115.457875-51.516483 155.545788 155.545788 0 0 1 115.457875 51.516483A62.652015 62.652015 0 0 0 739.692308 896h84.21978a85.919414 85.919414 0 0 0 74.197802-42.842491l32.586081-56.380952a62.534799 62.534799 0 0 0 3.92674-54.03663 155.369963 155.369963 0 0 1 120.673992-209.113553 62.652015 62.652015 0 0 0 44.893773-30.300367l43.897436-76.190476a86.681319 86.681319 0 0 0 0-86.446886l-41.025641-70.681319a62.358974 62.358974 0 0 0-45.655678-30.47619 155.897436 155.897436 0 0 1-133.274725-153.728938 154.021978 154.021978 0 0 1 11.135531-57.787546 62.417582 62.417582 0 0 0-3.575091-54.857143l-33.758242-58.608058a85.802198 85.802198 0 0 0-73.96337-42.549451z m-246.153846 130.989011a214.271062 214.271062 0 0 0 159.003663-70.915751 4.043956 4.043956 0 0 1 2.871795-1.465201h84.278388a27.018315 27.018315 0 0 1 23.443223 13.479853l33.758242 58.608059a4.336996 4.336996 0 0 1 0 3.692307 212.395604 212.395604 0 0 0-15.355311 79.648352A214.798535 214.798535 0 0 0 1049.084249 297.67033a4.278388 4.278388 0 0 1 3.164835 1.758241l41.025641 70.681319a27.897436 27.897436 0 0 1 0 27.838828l-43.897436 76.190476a4.454212 4.454212 0 0 1-3.223443 1.81685 213.978022 213.978022 0 0 0-166.271062 288.058608 4.336996 4.336996 0 0 1 0 3.6337l-32.527473 56.380952a27.194139 27.194139 0 0 1-23.443223 13.538462h-84.21978a4.043956 4.043956 0 0 1-2.871795-1.465202 214.271062 214.271062 0 0 0-159.003663-70.915751 214.271062 214.271062 0 0 0-159.003663 70.915751A4.043956 4.043956 0 0 1 416.117216 837.391941H331.78022a27.369963 27.369963 0 0 1-23.443224-13.655677L269.010989 755.92674a4.21978 4.21978 0 0 1 0-3.340659 213.509158 213.509158 0 0 0 10.315018-65.582418 214.857143 214.857143 0 0 0-169.201465-209.113553 3.985348 3.985348 0 0 1-2.695971-1.758242L62.300366 397.831502a28.014652 28.014652 0 0 1 0-27.956044l41.904762-72.556777a3.92674 3.92674 0 0 1 2.754579-1.758241 214.271062 214.271062 0 0 0 172.190476-209.81685 213.274725 213.274725 0 0 0-11.311355-68.688645 4.278388 4.278388 0 0 1 0-3.340659l40.263736-69.802198a27.018315 27.018315 0 0 1 23.443224-13.479854H416.117216a3.985348 3.985348 0 0 1 2.871795 1.465202 214.271062 214.271062 0 0 0 158.769231 71.091575zM577.81685 172.952381a210.989011 210.989011 0 1 0 210.989011 210.989011 211.282051 211.282051 0 0 0-210.989011-210.989011z m0 363.369963a152.380952 152.380952 0 1 1 152.380952-152.380952 152.380952 152.380952 0 0 1-152.380952 152.498168z"  horiz-adv-x="1155" />

    
    <glyph glyph-name="duihao" unicode="&#58904;" d="M524.81420285 374.00797263000004m-421.54308647 0a421.54308645 421.54308645 0 1 1 843.08617292 0 421.54308645 421.54308645 0 1 1-843.08617292 0ZM769.16779488 542.36008578c-11.48859565 11.48859565-29.89980661 11.48859565-41.38840225 0L457.20823615 268.99042523l-135.35922308 145.37492186c-11.48859565 11.48859565-29.89980661 11.48859565-41.38840229 0-11.48859565-11.48859565-11.48859565-30.19438599 0-41.83027134l154.80146188-166.29005752c5.89158752-5.89158752 13.55065127-8.83738127 21.35700473-8.69009158 7.65906378-0.1472897 15.46541722 2.65121438 21.35700472 8.69009158l291.19171277 294.28479621c11.34130596 11.63588534 11.34130596 30.34167568 0 41.83027134z"  horiz-adv-x="1024" />

    
    <glyph glyph-name="wode" unicode="&#58976;" d="M593.12355555 342.92622222H439.63733333c-142.56355555 0-257.82044445-113.664-257.82044444-253.952v-15.01866667c0-73.38666667 113.664-73.38666667 257.82044444-73.38666666h153.37244445c138.01244445 0 257.024 0 257.82044444 73.38666666v15.01866667c0.79644445 140.288-115.14311111 253.952-257.70666667 253.952z m-83.968 18.88711111c112.86755555 0 204.45866667 90.79466667 204.45866667 200.59022222 0 110.47822222-91.59111111 200.59022222-204.45866667 200.59022223-112.86755555 0-204.8-89.65688889-204.8-200.59022223 0-110.47822222 91.59111111-200.59022222 204.8-200.59022222z m-81.92 129.82044445c5.46133333 3.072 10.80888889 1.59288889 16.61155556-1.59288889 0 0 32.88177778-22.07288889 72.704-24.34844444 40.61866667 2.27555555 72.704 24.34844445 72.704 24.34844444 5.46133333 2.27555555 11.60533333 4.66488889 16.61155556 1.59288889 5.46133333-3.072 10.01244445-10.80888889 6.144-18.20444445-3.86844445-6.94044445-9.32977778-10.80888889-16.61155556-15.01866666-17.408-10.01244445-33.67822222-18.88711111-77.71022222-20.48-43.69066667 3.072-58.70933333 10.80888889-76.91377778 20.48-7.73688889 3.86844445-13.88088889 8.53333333-17.408 15.01866666-5.80266667 6.71288889-1.47911111 14.336 3.86844444 18.20444445z m0 0"  horiz-adv-x="1024" />

    
    <glyph glyph-name="hudong" unicode="&#58968;" d="M324.697966 274.285714c-21.942857 0-43.885714 14.628571-51.2 29.257143l-65.828572 138.971429-153.6 21.942857c-21.942857 0-36.571429 21.942857-51.2 36.571428-7.314286 21.942857 0 43.885714 14.628572 58.514286l109.714285 109.714286-29.257142 153.6c0 21.942857 7.314286 43.885714 21.942857 58.514286 14.628571 14.628571 43.885714 14.628571 58.514285 7.314285l131.657143-73.142857 131.657143 73.142857c21.942857 7.314286 43.885714 7.314286 58.514286-7.314285 21.942857-14.628571 29.257143-36.571429 21.942857-58.514286l-29.257143-153.6 109.714286-109.714286c14.628571-14.628571 21.942857-36.571429 14.628571-58.514286s-21.942857-36.571429-51.2-36.571428l-153.6-21.942857-65.828571-138.971429c21.942857-21.942857 0-29.257143-21.942857-29.257143z m-109.714286 226.742857c21.942857 0 36.571429-14.628571 43.885714-29.257142l65.828572-138.971429 65.828571 138.971429c7.314286 14.628571 21.942857 29.257143 43.885714 29.257142l153.6 21.942858-109.714285 109.714285c-14.628571 14.628571-21.942857 36.571429-14.628572 51.2l29.257143 153.6-138.971428-73.142857c-14.628571-7.314286-36.571429-7.314286-51.2 0l-138.971429 73.142857 29.257143-153.6c0-21.942857 0-36.571429-14.628572-51.2l-109.714285-109.714285 146.285714-21.942858z m629.028571-263.314285c-14.628571 0-29.257143 7.314286-43.885714 21.942857l-36.571428 65.828571-73.142858 7.314286c-14.628571 0-29.257143 14.628571-36.571428 29.257143-7.314286 14.628571 0 36.571429 14.628571 43.885714l51.2 51.2-14.628571 73.142857c0 14.628571 7.314286 36.571429 14.628571 43.885715 14.628571 7.314286 29.257143 14.628571 51.2 0l65.828572-36.571429 65.828571 36.571429c14.628571 7.314286 36.571429 7.314286 43.885714 0 14.628571-7.314286 21.942857-29.257143 14.628572-43.885715l-14.628572-73.142857 51.2-51.2c14.628571-14.628571 14.628571-29.257143 14.628572-43.885714-7.314286-14.628571-21.942857-29.257143-36.571429-29.257143l-73.142857-7.314286-36.571428-65.828571c7.314286-14.628571-7.314286-21.942857-21.942858-21.942857z m-58.514285 153.6c14.628571 0 29.257143-14.628571 36.571428-21.942857l21.942857-51.2 21.942858 51.2c7.314286 14.628571 21.942857 21.942857 36.571428 21.942857l51.2 7.314285-36.571428 36.571429c-14.628571 7.314286-14.628571 21.942857-14.628572 43.885714l7.314286 51.2-51.2-21.942857c-14.628571-7.314286-29.257143-7.314286-36.571429 0l-51.2 29.257143 7.314286-51.2c0-14.628571 0-29.257143-14.628571-36.571429l-36.571429-36.571428 58.514286-21.942857z m-453.485715-512c-14.628571 0-29.257143 7.314286-43.885714 21.942857l-36.571428 65.828571-73.142858 14.628572c-14.628571 0-29.257143 14.628571-36.571428 29.257143-7.314286 14.628571 0 36.571429 14.628571 43.885714l51.2 51.2-14.628571 73.142857c0 14.628571 7.314286 36.571429 14.628571 43.885714s29.257143 14.628571 51.2 0l65.828572-36.571428 65.828571 36.571428c14.628571 7.314286 36.571429 7.314286 43.885714 0 14.628571-7.314286 21.942857-29.257143 14.628572-43.885714l-14.628572-73.142857 51.2-51.2c14.628571-14.628571 14.628571-29.257143 14.628572-43.885714-7.314286-14.628571-21.942857-29.257143-36.571429-29.257143l-73.142857-7.314286-36.571428-65.828571c7.314286-21.942857-7.314286-29.257143-21.942858-29.257143z m-65.828571 146.285714c14.628571 0 29.257143-14.628571 36.571429-21.942857l21.942857-51.2 21.942857 51.2c7.314286 14.628571 21.942857 21.942857 36.571428 21.942857l51.2 7.314286-36.571428 36.571428c-14.628571 7.314286-14.628571 21.942857-14.628572 43.885715l7.314286 51.2-51.2-21.942858c-7.314286-7.314286-21.942857-7.314286-43.885714 0l-51.2 29.257143 7.314286-51.2c0-14.628571 0-29.257143-14.628572-36.571428l-36.571428-36.571429 65.828571-21.942857zM770.869394-3.657143c-7.314286 0-14.628571 7.314286-21.942857 14.628572l-263.314286 336.457142c-7.314286 14.628571-7.314286 29.257143 7.314286 43.885715 14.628571 7.314286 29.257143 7.314286 43.885714-7.314286l263.314286-336.457143c7.314286-14.628571 7.314286-29.257143-7.314286-43.885714-7.314286 0-14.628571-7.314286-21.942857-7.314286z"  horiz-adv-x="1026" />

    
    <glyph glyph-name="Hi" unicode="&#59594;" d="M960.1 392.1c0 247.5-200.6 448.1-448.1 448.1S63.9 639.6 63.9 392.1 264.5-56 512-56h348.8c14.9 0 27.1 12.1 27 27.1V147.9c45.7 70.3 72.3 154.1 72.3 244.2zM692.4 556c19.1 0 34.5-15.4 34.5-34.5 0-19-15.4-34.5-34.5-34.5s-34.5 15.4-34.5 34.5 15.4 34.5 34.5 34.5z m-39.9-98.8h64l-52.2-229h-64l52.2 229z m-272.3-91.8l-31.3-137.2h-64l74.8 327.9h64l-30.6-134h111l30.6 134h64l-74.8-327.9h-64l31.3 137.2h-111z"  horiz-adv-x="1024" />

    
    <glyph glyph-name="down-copy-copy" unicode="&#58880;" d="M305.31863992 275.30525007000006c5.81820745-5.81655864 15.24275545-5.81655864 21.07456552 1e-8l185.60679456 185.60638235 185.60638236-185.60638235c5.83304667-5.81655864 15.25800687-5.81655864 21.07538992-1e-8 5.81697083 5.81655864 5.81738305 15.25718247 0 21.07374111l-194.23332276 194.23291055c-0.50783078 0.73660197-1.08656003 1.43981571-1.74195854 2.09645081-2.94723226 2.94640785-6.83386903 4.39405535-10.70607878 4.34830113-3.87262196 0.04575425-7.76008313-1.39983226-10.70772758-4.34830113-0.65663511-0.65663511-1.23371555-1.36067323-1.74278294-2.09768741l-194.23167397-194.23126175c-5.81697083-5.81655864-5.81738305-15.25718247 0.00041222-21.07374113z"  horiz-adv-x="1024" />

    
    <glyph glyph-name="shijian" unicode="&#59027;" d="M512-15.999999900000034c-113.55000029 2.59999981-207.9500001 41.52499981-283.20000029 116.79999961C153.55000039 176.0499999 114.5999999 270.44999971000004 112.0000001 384c2.59999981 113.55000029 41.52499981 207.9500001 116.79999961 283.20000029C304.0499999 742.44999961 398.44999971 781.4000000999999 512 783.9999999c113.55000029-2.59999981 207.9500001-41.52499981 283.20000029-116.79999961C870.44999961 591.9500001 909.4000001 497.55000029 911.9999999 384c-2.59999981-113.55000029-41.52499981-207.9500001-116.79999961-283.20000029C719.9500001 25.550000390000037 625.55000029-13.400000100000057 512-15.999999900000034z m247.8499998 152.1500001c65.99999971 65.99999971 99.8499999 148.1000001 102.17500049 246.70000019-2.32499971 100.90000019-36.1749999 182.99999971-102.17500049 248.99999941-65.99999971 65.99999971-148.1000001 99.8499999-246.70000019 102.17500049-100.90000019-2.32499971-182.99999971-36.1749999-248.99999941-102.17500049-65.99999971-65.99999971-99.8499999-148.1000001-102.17500049-246.70000019 2.32499971-100.90000019 36.1749999-182.99999971 102.17500049-248.99999941 65.7500001-65.7500001 147.47500019-99.60000029 247.8499998-102.1250004 100.37499961 2.5250001 182.09999971 36.37500029 247.8499998 102.12500039zM512 384h174.9999999a24.99999961 24.99999961 0 0 0 0-50.0000001h-199.99999951a24.99999961 24.99999961 0 0 0-25.00000049 25.00000049V609a24.99999961 24.99999961 0 0 0 50.0000001 0v-225z"  horiz-adv-x="1024" />

    
    <glyph glyph-name="daipeisong-" unicode="&#58951;" d="M486.004 730.609H191.388l-86.652-190.636h381.268V730.609z m346.608 0H537.996v-190.636h381.268l-86.652 190.636zM104.736 106.715c0-38.286 31.035-69.323 69.321-69.323h675.885c38.285 0 69.322 31.037 69.322 69.323V487.983H104.736v-381.268z m103.982 225.113c0 9.672 7.84 17.512 17.512 17.512h138.461c9.572 0 17.33-7.759 17.33-17.33v-17.33c0-9.572-7.759-17.332-17.33-17.332H225.865c-9.469 0-17.147 7.679-17.147 17.15v17.33z m0-121.315c0 9.674 7.84 17.514 17.512 17.514h259.774c9.57 0 17.33-7.759 17.33-17.33v-17.33c0-9.572-7.76-17.33-17.33-17.33H225.865c-9.469 0-17.147 7.677-17.147 17.148v17.328z"  horiz-adv-x="1024" />

    
    <glyph glyph-name="jiantou2-down" unicode="&#58882;" d="M576.215534 235.11845664999998M384.333342 299.07918665M636.246769 162.90578465L939.52505 495.44857665l-0.855484 1.050935c13.075807 12.841469 21.309328 31.488155 21.30932801 52.250014 0 38.73316299-28.636201 70.13228999-63.96073101 70.13228999-16.33605999 0-31.233352-6.725168-42.537815-17.77482899l-0.187265 0.230244-302.009382-331.152119c-21.465894-23.537066-56.591903-23.537066-78.057797 0L172.815951 599.58226165l-0.13303-0.160659c-11.484565 12.046361-27.04496 19.460214-44.192501 19.460214-35.32453001 0-63.96073099-31.399127-63.960731-70.13229 0-21.286816 8.661264-40.34487 22.317285-53.206806l-0.032746-0.039909 303.32739999-332.597027C457.82003 88.69561865000003 568.567343 88.69561865000003 636.246769 162.90578465z"  horiz-adv-x="1024" />

    
    <glyph glyph-name="mimayanjingguanbi" unicode="&#58915;" d="M764.085157 494.613493c2.302849 5.833883 0 11.667766-5.833883 14.047377-5.833883 2.302849-11.667766 0-14.047376-5.833883-29.246177-66.705847-120.592504-138.170915-231.82009-138.170915S309.809895 436.121139 279.412294 502.826987c-2.302849 5.833883-8.136732 8.213493-14.047376 5.833883-5.833883-2.302849-8.213493-8.136732-5.833884-14.047377C271.275562 467.670165 293.536432 439.575412 321.631184 415.011694l-55.114842-62.023388c-3.531034-4.682459-3.531034-10.593103 1.228186-15.198801 2.302849-2.302849 4.682459-2.302849 7.062069-2.302848 2.302849 0 5.833883 1.228186 8.213493 3.531034l56.189505 62.10015c28.094753-21.032684 62.10015-37.45967 100.711245-47.976012L416.431784 271.16042c-1.228186-5.833883 1.228186-11.667766 7.062069-12.895952h2.302849c4.682459 0 9.364918 3.531034 10.593103 8.213493L459.802099 349.610795c16.426987-3.531034 33.928636-4.682459 52.658471-4.682459 14.047376 0 26.943328 1.228186 40.990704 3.531034L574.483958 266.554723c1.228186-4.682459 5.833883-8.213493 10.593103-8.213494h2.302849c5.833883 1.228186 9.364918 7.062069 7.062069 12.895952L573.409295 350.838981c39.83928 9.364918 74.91934 25.791904 105.393704 46.824587l51.507046-59.72054c2.302849-2.302849 4.682459-3.531034 8.136732-3.531034 2.302849 0 4.682459 1.228186 7.062069 2.302849 4.682459 3.531034 4.682459 10.593103 1.228185 15.1988l-50.355622 58.569116c31.395502 24.486957 54.807796 54.884558 67.703748 84.130734z m0 0"  horiz-adv-x="1024" />

    
    <glyph glyph-name="saoyisao" unicode="&#58972;" d="M962.466-50.373H66.362V845.725H962.46v-896.098z m-892.881 3.218h889.664V842.508H69.581v-889.664zM784.45 363.728H247.915c-11.422 0-20.673 9.25-20.673 20.673s9.25 20.673 20.673 20.673h536.613c11.423 0 20.673-9.25 20.673-20.673-0.08-11.423-9.331-20.673-20.753-20.673z m-61.858-247.675H598.796c-11.423 0-20.673 9.25-20.673 20.673s9.25 20.673 20.673 20.673h123.796c11.422 0 20.673 9.25 20.673 20.673V281.276c0 11.422 9.25 20.673 20.673 20.673s20.673-9.25 20.673-20.673v-103.202c-0.161-34.187-27.913-62.02-62.02-62.02z m-309.614 0H309.775c-34.106 0-61.939 27.752-61.939 61.939V281.196c0 11.422 9.25 20.673 20.673 20.673s20.673-9.25 20.673-20.673v-103.204c0-11.423 9.25-20.673 20.673-20.673H413.06c11.422 0 20.673-9.25 20.673-20.673-0.08-11.342-9.331-20.593-20.753-20.593zM268.51 466.933c-11.422 0-20.673 9.25-20.673 20.673V590.73c0 34.106 27.752 61.939 61.939 61.939H412.98c11.422 0 20.673-9.25 20.673-20.673s-9.25-20.673-20.673-20.673H309.775c-11.342 0-20.673-9.25-20.673-20.673v-103.204c0.08-11.262-9.17-20.512-20.593-20.512z m495.348 0c-11.422 0-20.673 9.25-20.673 20.673V590.73c0 11.342-9.25 20.673-20.673 20.673H598.716c-11.423 0-20.673 9.25-20.673 20.673s9.25 20.673 20.673 20.673h123.796c34.106 0 61.939-27.752 61.939-61.939v-103.204c0-11.422-9.17-20.673-20.593-20.673z m0 0"  horiz-adv-x="1024" />

    
    <glyph glyph-name="fenxiangdaozhuanfafasongzhiyuanquanxianxing" unicode="&#58906;" d="M414.322 320.142l249.173-152.576a142.222 142.222 0 1 0-29.468-48.64L384.512 271.701a170.667 170.667 0 1 0 0.398 224.143l249.458 152.32a142.222 142.222 0 1 0 29.81-48.441L414.549 447.26c7.823-19.54 12.118-40.903 12.118-63.26 0-22.585-4.38-44.117-12.345-63.858zM768 611.556a85.333 85.333 0 1 1 0 170.666 85.333 85.333 0 0 1 0-170.666z m0-625.778a85.333 85.333 0 1 1 0 170.666 85.333 85.333 0 0 1 0-170.666zM256 270.222a113.778 113.778 0 1 1 0 227.556 113.778 113.778 0 0 1 0-227.556z"  horiz-adv-x="1024" />

    
    <glyph glyph-name="jiantou" unicode="&#58948;" d="M302.90432 827.55072l462.42816-462.42816v36.1984a19847503.36 19847503.36 0 0 1-464.29184-464.29184c-23.36256-23.36256 12.83584-59.5712 36.20352-36.1984 154.76224 154.76224 309.5296 309.52448 464.28672 464.29184 9.86624 9.86112 9.86624 26.3424 0 36.1984L339.10784 863.75936c-23.36768 23.36256-59.56608-12.84096-36.20352-36.20864z"  horiz-adv-x="1024" />

    


  </font>
</defs>
</svg>
