<svg xmlns="http://www.w3.org/2000/svg" viewBox="0 0 1024 1024"><linearGradient id="a" gradientUnits="userSpaceOnUse" x1="56" y1="513.993" x2="968.051" y2="513.993"><stop offset="0" stop-color="#6bcf49"/><stop offset="1" stop-color="#30b30e"/></linearGradient><path d="M926.9 353.4c-.2-.2-.4-.3-.6-.5L577.6 65.1c-17.5-15.6-37.4-24-57.3-24.3-20.3-.4-40.3 7.6-57.9 23.2L99.8 357.7c-.3.2-.5.5-.8.7-29 26-43 56.3-43 92.6v467c0 38.1 31 69.2 69.2 69.2h176.6c11 0 20-9 20-20V625.1c-.1-10.5 4.3-20.9 13-28.2 15.4-12.9 38.5-11 51.5 4.3l29.4 34.6c8.6 10.1 21.2 15.9 34.5 15.9h123.6c13.3 0 25.9-5.8 34.5-15.9l29.4-34.6c13.1-15.3 36.1-17.2 51.5-4.3 8.7 7.3 13.1 17.7 13 28.2v342.1c0 11 9 20 20 20h176.6c38.1 0 69.2-31.1 69.1-69.2V452.6c2.2-55.9-20-80.5-41-99.2z" fill="url(#a)"/></svg>