<svg xmlns="http://www.w3.org/2000/svg" viewBox="0 0 1024 1024"><path d="M854.6 40.8H169.4c-44 0-80 36-80 80v784.5c0 44 36 80 80 80h685.2c44 0 80-36 80-80V120.8c0-44-36-80-80-80zm38 864.4c0 10.1-4 19.6-11.2 26.8s-16.7 11.2-26.8 11.2H169.4c-10.1 0-19.6-4-26.8-11.2s-11.2-16.7-11.2-26.8V120.8c0-10.1 4-19.6 11.2-26.8 7.2-7.2 16.7-11.2 26.8-11.2h685.2c10.1 0 19.6 4 26.8 11.2s11.2 16.7 11.2 26.8v784.4z"/><path d="M543.2 280.7c-18.6-10.9-41.7-10.9-60.4-.1-26.7 15.5-70 48.6-106.5 87.8C329 419.1 305 466.1 305 508c0 56.4 23.1 90.2 42.4 108.7 29.1 27.8 61 33.2 70 34.2 3.3.4 6.7.6 10.1.6 25.1 0 50.1-10 70.5-23.7-9.9 26-26.5 57.4-54 84.8-8 7.9-.9 21.8 10.4 21.8h115.2c11.3 0 18.6-14 10.4-21.8-29.2-27.6-46-59.9-55.5-86.4 24.4 16.4 55.7 28 84.5 24.8 9-1 40.6-6.4 69.1-34.5 18.7-18.4 41-52.2 41-108.5 0-43.5-23.7-91-70.5-141.1-37.4-40-80.2-71.4-105.4-86.2zm105.3 305.9c-15 14.8-33.2 21.4-44.3 22.7-20.5 2.3-56.1-11.3-76.2-35.1-4-4.7-9.9-7.4-16-7.4s-12 2.7-16 7.4c-16.5 19.5-48.6 37.9-73.9 35.1-11.3-1.3-30.1-8-45.7-22.9-19.5-18.6-29.4-45-29.4-78.3 0-30.1 21.3-69.5 60-111.1 33.4-35.8 73.6-66.6 96.8-80.1 2.8-1.6 5.9-2.4 9-2.4 3.1 0 6.3.8 9.1 2.5C576 348.6 677 437.1 677 508c0 33.6-9.6 60-28.5 78.6z"/></svg>