<svg xmlns="http://www.w3.org/2000/svg" viewBox="0 0 1024 1024"><path d="M962.8 916.4l-45.5-638.5c-3.7-41.2-38.3-72.8-79.7-72.8H729.9v-6.8c0-48.2-18.9-93.6-53.2-127.8-34.2-34.4-79.7-53.2-127.8-53.2h-73.8c-48.2 0-93.6 18.9-127.8 53.2-34.3 34.3-53.2 79.7-53.2 127.8v6.8H186.4c-41.4 0-76 31.6-79.7 72.8L61.1 916.4c-4.2 46.8 32.7 87.2 79.7 87.2h742.3c47.1 0 84-40.4 79.7-87.2zM336.1 198.3c0-37 14.5-71.8 40.8-98.2 26.3-26.3 61.2-40.8 98.2-40.8h73.8c37 0 71.8 14.5 98.2 40.8 26.3 26.3 40.8 61.2 40.8 98.2v6.8H336.1v-6.8zm575.1 750.9c-7.3 8-17.2 12.4-28.1 12.4H140.8c-10.8 0-20.8-4.4-28.1-12.4s-10.8-18.3-9.8-29.1v-.8l45.5-638c.9-9.3 5.2-18 12.2-24.3 7-6.4 16.1-9.9 25.6-9.9H294v62.6c0 11.6 9.4 21 21 21s21-9.4 21-21v-62.6h351.8v62.6c0 11.6 9.4 21 21 21s21-9.4 21-21v-62.6h107.8c9.5 0 18.6 3.5 25.6 9.9 6.9 6.3 11.3 15 12.2 24.3l45.5 638v.8c1.1 10.8-2.4 21.1-9.7 29.1z"/><path d="M716.3 535.5l-128.2-18.6-57.3-116.2C527.3 393.5 520 389 512 389s-15.3 4.5-18.8 11.7l-57.3 116.2-128.2 18.6c-7.9 1.2-14.5 6.7-17 14.3s-.4 15.9 5.3 21.5l92.8 90.4-21.9 127.7c-1.4 7.9 1.9 15.8 8.4 20.5s15 5.3 22.1 1.6L512 751.2l114.7 60.3c3.1 1.6 6.4 2.4 9.8 2.4 4.4 0 8.7-1.4 12.3-4 6.5-4.7 9.7-12.7 8.4-20.5l-21.9-127.7 92.8-90.4c5.7-5.6 7.8-13.9 5.3-21.5-2.6-7.6-9.1-13.2-17.1-14.3zM598 639.3c-4.9 4.8-7.2 11.8-6 18.6l16.6 96.6-86.8-45.6c-3.1-1.6-6.4-2.4-9.8-2.4s-6.7.8-9.8 2.4l-86.8 45.6 16.6-96.6c1.2-6.8-1.1-13.8-6-18.6l-70.2-68.4 97-14.1c6.8-1 12.8-5.3 15.8-11.5l43.4-87.9 43.4 87.9c3.1 6.2 9 10.5 15.8 11.5l97 14.1-70.2 68.4z"/></svg>