<svg xmlns="http://www.w3.org/2000/svg" viewBox="0 0 1024 1024"><path d="M273 64C157.8 64 64 157.8 64 273s93.8 209 209 209 209-93.8 209-209S388.2 64 273 64zm0 376c-92.1 0-167-74.9-167-167s74.9-167 167-167 167 74.9 167 167-74.9 167-167 167zM585.4 481.1c42.8.4 121.2.9 164.6.9 115.2 0 209-93.8 209-209 0-55.8-21.8-108.3-61.3-147.8S805.8 64 750 64c-115.2 0-209 93.8-209 209 0 33.9.7 126.4 1 164.6.1 23.8 19.6 43.3 43.4 43.5zM750 106c44.6 0 86.5 17.4 118.1 49s49 73.5 49 118.1c0 92.1-74.9 167-167 167-43.3 0-121.5-.6-164.3-.9-1 0-1.8-.8-1.8-1.8-.3-38.2-1-130.5-1-164.3 0-92.2 74.9-167.1 167-167.1zM750 546c-45.3 0-130.2.7-164.6.9-23.8.2-43.2 19.7-43.4 43.4-.3 38.2-1 130.7-1 164.6 0 115.2 93.8 209 209 209 55.8 0 108.3-21.8 147.7-61.3 39.5-39.5 61.3-92 61.3-147.8 0-115-93.8-208.8-209-208.8zm118 327c-31.6 31.6-73.5 49-118.1 49-92.1 0-167-74.9-167-167 0-33.8.7-126.1 1-164.3 0-1 .8-1.8 1.8-1.8 34.4-.3 119.1-.9 164.3-.9 92.1 0 167 74.9 167 167 0 44.6-17.4 86.5-49 118zM437.6 546.9c-34.4-.3-119.3-.9-164.6-.9-115.2 0-209 93.8-209 209 0 55.8 21.8 108.3 61.3 147.8S217.2 964 273 964c115.2 0 209-93.8 209-209 0-32.5-.6-117.1-1-164.6-.1-23.8-19.6-43.3-43.4-43.5zM273 922c-44.6 0-86.5-17.4-118.1-49s-49-73.5-49-118.1c0-92.1 74.9-167 167-167 45.1 0 129.9.7 164.3.9 1 0 1.8.8 1.8 1.8.3 38.2 1 130.7 1 164.3 0 92.2-74.9 167.1-167 167.1z"/></svg>