<svg xmlns="http://www.w3.org/2000/svg" viewBox="0 0 1024 1024"><path d="M594.8 458.7c24.3-14.2 44.6-34.6 58.8-58.9 5.8-10 2.5-22.9-7.5-28.7-10-5.9-22.9-2.5-28.7 7.5-21.8 37.3-62.2 60.5-105.3 60.5-43.2 0-83.5-23.2-105.3-60.5-5.9-10-18.7-13.4-28.7-7.5s-13.4 18.7-7.5 28.7c14.2 24.3 34.5 44.7 58.8 58.9 25 14.7 53.7 22.4 82.8 22.4 29 .1 57.6-7.7 82.6-22.4z"/><path d="M873.4 729.5c-19.2-32-46.7-60.6-81.5-85.2-44.7-31.4-99.5-54.2-160.1-67 31.4-14.2 60.3-34.2 85.4-59.3 54.8-54.8 85-127.7 85-205.2s-30.2-150.4-85-205.2-127.7-85-205.2-85-150.4 30.2-205.2 85-85 127.7-85 205.2 30.2 150.4 85 205.2c24.3 24.3 52.1 43.7 82.4 57.9-62 11.7-115.9 32.6-159.4 62.3-34.8 23.7-61.8 52.3-80.4 85-19 33.4-28.6 70.3-28.6 109.5 0 39.7 22.5 95.3 129.5 134.7 69.4 25.6 162.4 39.6 261.8 39.6s192.4-14.1 261.8-39.6c107-39.4 129.5-95 129.5-134.7-.1-35.5-10.2-70.3-30-103.2zM263.8 312.8c0-66.3 25.8-128.7 72.7-175.5 46.8-47 109.2-72.8 175.5-72.8s128.7 25.8 175.5 72.7c46.9 46.9 72.7 109.2 72.7 175.5s-25.8 128.7-72.7 175.5C640.7 535.2 578.3 561 512 561s-128.7-25.8-175.5-72.7c-46.9-46.9-72.7-109.2-72.7-175.5zM759.3 928c-63.9 23.5-154.1 37-247.3 37s-183.4-13.5-247.3-37c-46.5-17.1-102-47.6-102-95.3 0-64.1 31.4-119.4 90.7-159.8C316.6 629.8 406 607 512 607c99.2 0 190 25.5 255.7 71.7 30.1 21.1 53.5 45.5 69.7 72.4 15.8 26.3 23.9 53.8 23.9 81.5 0 47.8-55.5 78.2-102 95.4z"/></svg>